<?xml version="1.0" encoding="iso-8859-1"?>
<!-- Uploaded to: SVG Repo, www.svgrepo.com, Generator: SVG Repo Mixer Tools -->
<svg height="800px" width="800px" version="1.1" id="Layer_1" xmlns="http://www.w3.org/2000/svg" xmlns:xlink="http://www.w3.org/1999/xlink" 
	 viewBox="0 0 512 512" xml:space="preserve">
<path style="fill:#4A5A67;" d="M512,256.006C512,397.402,397.394,512.004,256.004,512C114.606,512.004,0,397.402,0,256.006
	C-0.007,114.61,114.606,0,256.004,0C397.394,0,512,114.614,512,256.006z"/>
<path style="fill:#444A54;" d="M511.69,268.571c-0.721-0.708-146.914-145.781-148.198-146.329l-36.211-15.346l-26.052-20.93
	c-2.282-1.837-5.309-1.99-7.839-0.751v-0.898h-74.667v0.191c-1.917-0.314-3.922,0.031-5.586,1.234l-27.568,20.029l-37.078,16.527
	c-1.196,0.532-2.224,1.371-2.996,2.425c-39.375,54.064-67.332,248.951-68.506,257.22c-0.379,2.674,0.794,5.139,2.748,6.739
	c0.396,0.573,115.876,114.746,117.133,116.444c18.983,4.489,38.78,6.876,59.136,6.875
	C393.181,512.004,505.139,404.128,511.69,268.571z"/>
<path style="fill:#F4F6F9;" d="M366.604,124.815c-0.802-1.145-1.909-2.037-3.193-2.585l-36.199-15.341l-26.046-20.925
	c-2.279-1.836-5.307-1.989-7.836-0.75v-0.897h-74.644v0.191c-1.916-0.313-3.92,0.031-5.584,1.234l-27.562,20.02l-37.067,16.522
	c-1.196,0.532-2.223,1.371-2.996,2.423c-39.364,54.049-67.312,248.879-68.485,257.145c-0.569,4.01,2.165,7.742,6.166,8.409
	l44.757,7.465c3.783,0.615,7.523-1.775,8.463-5.554l22.59-90.419v111.005c0,2.722,1.479,5.227,3.863,6.539
	c1.903,1.046,13.471,6.356,55.043,8.365c0.335,0.015,0.671,0.022,1.013,0.022c5.737,0,11.189-2.366,15.825-6.881
	c10.094-9.839,16.686-31.179,20.989-56.085c4.131,25.216,10.528,46.772,20.43,56.423c5.453,5.31,11.051,6.542,15.075,6.542
	c0.335,0,0.663-0.007,0.977-0.026c40.384-2.022,54.686-7.374,56.188-7.974c2.821-1.141,4.673-3.878,4.673-6.925V301.763
	l22.582,90.407c0.941,3.779,4.679,6.174,8.463,5.554l44.75-7.465c4.016-0.671,6.757-4.435,6.16-8.463
	C433.769,373.529,404.385,178.611,366.604,124.815z M307.478,110.188l11.189,8.988c0.532,0.434,1.13,0.787,1.757,1.057l9.623,4.077
	c-3.707,19.692-22.733,110.265-66.307,158.612c-0.145-4.87-0.253-9.7-0.323-14.455c0.243-13.902,0.156-25.024,0.06-31.179
	c0.003-0.172,0.005-0.351,0.01-0.522l5.335-5.35c0.54-0.535,0.991-1.148,1.341-1.822
	C301.866,168.811,308.032,131.248,307.478,110.188z M223.137,99.247h67.967c2.544,11.238,5.286,47.404-33.653,122.431l-1.438,1.441
	l-1.237-1.241C220.997,143.205,221.46,109.799,223.137,99.247z M193.682,118.302l13.931-10.117
	c0.044,19.732,6.189,56.406,34.02,120.914c0.372,0.867,0.903,1.654,1.574,2.318l5.329,5.34c0.003,0.185,0.005,0.39,0.009,0.577
	c-0.102,5.808-0.21,15.953-0.058,28.682c-0.092,5.269-0.234,10.805-0.429,16.516c-47.403-54.122-59.147-160.511-59.275-161.67
	c-0.006-0.063-0.046-0.11-0.053-0.172l3.604-1.606C192.807,118.866,193.26,118.608,193.682,118.302z M224.291,410.107
	c-2.566,2.497-4.548,2.716-5.7,2.639c-25.754-1.243-38.89-3.802-44.692-5.317V241.071c0-3.769-2.814-6.947-6.554-7.41
	c-3.689-0.452-7.231,1.939-8.149,5.602l-35.623,142.605l-30.725-5.124c5.438-35.762,30.98-194.119,63.579-241.654l18.065-8.053
	c3.009,23.482,19.097,127.227,72.649,175.877C244.61,347.787,238.325,396.434,224.291,410.107z M388.435,381.868l-35.616-142.605
	c-0.911-3.663-4.483-6.058-8.149-5.602c-3.74,0.463-6.554,3.642-6.554,7.41v166.08c-6.714,1.629-21.125,4.316-46.674,5.598
	c-1.05,0.044-2.668-0.131-4.884-2.304c-12.954-12.622-19.479-59.464-21.985-107.254c51.957-46.661,74.148-144.886,79.565-172.912
	l11.423,4.839c31.338,47.574,57.85,205.782,63.542,241.632L388.435,381.868z"/>
</svg>